<svg xmlns="http://www.w3.org/2000/svg" width="18" height="18" viewBox="0 0 18 18">
  <defs>
    <style>
      .cls-1 {
        fill: #fff;
        stroke: #707070;
        opacity: 0;
      }

      <!-- .cls-2 {
        fill: #0a96de;
      }
 -->
      .cls-3 {
        stroke: none;
      }

      .cls-4 {
        fill: none;
      }
    </style>
  </defs>
  <g id="delete" transform="translate(-1399 -92.77)">
    <g id="矩形_203" data-name="矩形 203" class="cls-1" transform="translate(1399 92.77)">
      <rect class="cls-3" width="18" height="18"/>
      <rect class="cls-4" x="0.5" y="0.5" width="17" height="17"/>
    </g>
    <path id="删_除_" data-name="删 除 " class="cls-2" d="M46.7,57.172a.978.978,0,0,1-.978.978h-7.04a.981.981,0,0,1-.978-.978V46.8h9ZM39.654,45.046a.2.2,0,0,1,.2-.2h4.7a.2.2,0,0,1,.2.2v.577h-5.1Zm9.975.577h-3.71v-.577a1.366,1.366,0,0,0-1.366-1.366h-4.7a1.371,1.371,0,0,0-1.366,1.366v.577H34.768a.591.591,0,0,0,0,1.179h1.756V57.172a2.154,2.154,0,0,0,2.154,2.154h7.04a2.154,2.154,0,0,0,2.154-2.154V46.8h1.756a.588.588,0,0,0,.588-.588.577.577,0,0,0-.588-.588ZM42.2,56.384a.588.588,0,0,0,.588-.591V49.531a.588.588,0,0,0-1.176,0v6.262a.588.588,0,0,0,.588.591m-2.745,0a.591.591,0,0,0,.591-.591V49.531a.591.591,0,1,0-1.179,0v6.262a.607.607,0,0,0,.588.591m5.49,0a.591.591,0,0,0,.588-.591V49.531a.591.591,0,1,0-1.179,0v6.262a.591.591,0,0,0,.591.591" transform="translate(1365.782 50.09)"/>
  </g>
</svg>
