<svg t="1662105315636" class="icon" viewBox="0 0 1024 1024" version="1.1" xmlns="http://www.w3.org/2000/svg" p-id="3125" width="200" height="200"><path d="M512.049 2.736c70.555 0 136.938 13.466 199.146 40.398 62.209 26.931 116.263 63.346 162.16 109.246 45.899 45.899 82.315 99.763 109.248 161.593 26.931 61.829 40.397 128.021 40.396 198.576 0 70.555-13.466 136.938-40.396 199.146-26.932 62.208-63.347 116.262-109.248 162.161-45.897 45.899-99.952 82.314-162.16 109.247-62.208 26.931-128.59 40.396-199.146 40.396-70.555 0-136.748-13.466-198.576-40.396-61.83-26.933-115.694-63.348-161.593-109.247-45.9-45.899-82.315-99.953-109.246-162.161C15.703 649.486 2.237 583.104 2.236 512.549c0-70.555 13.465-136.748 40.398-198.576 26.932-61.83 63.347-115.694 109.246-161.593 45.898-45.899 99.763-82.315 161.593-109.246C375.303 16.202 441.495 2.736 512.049 2.736L512.049 2.736zM765.817 581.966c22.761 0 43.243-5.88 61.449-17.639 18.209-11.759 27.313-29.397 27.313-52.915 0-22.761-9.104-39.641-27.313-50.641-18.206-11-38.688-16.501-61.449-16.501L262.833 444.27c-22.76 0-43.623 5.501-62.589 16.501-18.967 11-28.45 27.88-28.45 50.641 0 23.517 9.483 41.156 28.45 52.915 18.966 11.759 39.829 17.639 62.589 17.639L765.817 581.966 765.817 581.966z" p-id="3126"></path></svg>